<?xml version="1.0" encoding="utf-8"?>
<!-- Generator: Adobe Illustrator 15.0.0, SVG Export Plug-In . SVG Version: 6.00 Build 0)  -->
<!DOCTYPE svg PUBLIC "-//W3C//DTD SVG 1.1//EN" "http://www.w3.org/Graphics/SVG/1.1/DTD/svg11.dtd">
<svg version="1.1" id="Layer_1" xmlns="http://www.w3.org/2000/svg" xmlns:xlink="http://www.w3.org/1999/xlink" x="0px" y="0px"
	 width="331.2px" height="79.2px" viewBox="48.086 104.882 331.2 79.2" enable-background="new 48.086 104.882 331.2 79.2"
	 xml:space="preserve">
<g>
	<g>
		<path fill="#FFFFFF" d="M52.692,166.136c-0.671-1.729-1.006-4.498-1.006-8.305c0-5.621,0.801-10.964,2.401-16.023
			c0.389-1.255,1.027-2.173,1.914-2.758c0.886-0.584,2.129-0.875,3.73-0.875c0.865,0,1.47,0.107,1.817,0.323
			c0.346,0.216,0.519,0.626,0.519,1.232c0,0.694-0.324,2.249-0.973,4.671c-0.433,1.732-0.778,3.235-1.038,4.509
			c-0.26,1.277-0.476,2.867-0.649,4.77c1.168-3.374,2.563-6.229,4.185-8.563c1.622-2.336,3.286-4.076,4.995-5.224
			c1.708-1.144,3.32-1.717,4.833-1.717s2.583,0.345,3.211,1.036c0.626,0.693,0.941,1.752,0.941,3.18
			c0,1.383-0.412,3.893-1.233,7.526c-0.347,1.558-0.584,2.724-0.714,3.504c2.162-5.32,4.562-9.19,7.202-11.614
			c2.637-2.422,5.103-3.632,7.396-3.632c2.811,0,4.217,1.405,4.217,4.217c0,1.686-0.477,4.736-1.427,9.146
			c-0.822,3.764-1.233,6.251-1.233,7.461c0,1.73,0.626,2.595,1.881,2.595c0.865,0,1.892-0.529,3.082-1.59
			c1.189-1.06,2.779-2.779,4.769-5.157c0.519-0.605,1.104-0.91,1.752-0.91c0.561,0,1.005,0.261,1.33,0.779
			c0.325,0.52,0.486,1.232,0.486,2.141c0,1.731-0.411,3.072-1.232,4.022c-1.859,2.293-3.859,4.175-6,5.644
			c-2.141,1.473-4.574,2.205-7.3,2.205c-2.206,0-3.871-0.637-4.995-1.912c-1.125-1.276-1.687-3.124-1.687-5.548
			c0-1.21,0.303-3.372,0.909-6.485c0.562-2.726,0.844-4.607,0.844-5.645c0-0.692-0.239-1.038-0.713-1.038
			c-0.562,0-1.363,0.726-2.401,2.174c-1.038,1.447-2.076,3.362-3.114,5.739c-1.038,2.381-1.881,4.89-2.53,7.526
			c-0.477,2.077-1.029,3.463-1.654,4.153c-0.628,0.691-1.633,1.035-3.018,1.035c-1.427,0-2.497-0.681-3.21-2.043
			c-0.714-1.362-1.071-3.017-1.071-4.963c0-1.644,0.217-4.021,0.649-7.136c0.346-2.767,0.519-4.585,0.519-5.448
			c0-0.693-0.238-1.039-0.714-1.039c-0.648,0-1.47,0.778-2.464,2.336c-0.996,1.558-1.958,3.546-2.887,5.968
			c-0.931,2.423-1.677,4.801-2.238,7.136c-0.476,2.034-1.028,3.407-1.654,4.12c-0.627,0.714-1.612,1.069-2.952,1.069
			C54.519,168.729,53.361,167.865,52.692,166.136z"/>
		<path fill="#FFFFFF" d="M130.088,154.718c0.323,0.52,0.486,1.231,0.486,2.14c0,1.732-0.411,3.073-1.232,4.023
			c-1.6,1.946-3.86,3.741-6.779,5.386c-2.918,1.644-6.044,2.463-9.374,2.463c-4.541,0-8.066-1.231-10.574-3.697
			c-2.509-2.466-3.763-5.839-3.763-10.121c0-2.982,0.626-5.762,1.881-8.336c1.254-2.571,2.994-4.616,5.222-6.13
			c2.228-1.514,4.747-2.271,7.558-2.271c2.508,0,4.52,0.744,6.034,2.236c1.514,1.492,2.271,3.514,2.271,6.065
			c0,2.984-1.07,5.547-3.21,7.687c-2.141,2.142-5.763,3.84-10.867,5.094c1.081,1.99,3.135,2.984,6.163,2.984
			c1.946,0,4.162-0.681,6.65-2.044c2.487-1.362,4.638-3.146,6.455-5.351c0.52-0.605,1.103-0.91,1.751-0.91
			C129.32,153.938,129.763,154.198,130.088,154.718z M108.354,147.321c-1.103,1.86-1.654,4.109-1.654,6.747v0.13
			c2.551-0.605,4.562-1.513,6.033-2.723c1.469-1.212,2.205-2.617,2.205-4.22c0-0.82-0.228-1.48-0.682-1.978s-1.07-0.746-1.849-0.746
			C110.809,144.531,109.458,145.463,108.354,147.321z"/>
		<path fill="#FFFFFF" d="M126.552,165.812c-1.6-1.946-2.4-4.498-2.4-7.655c0-3.46,0.8-6.736,2.4-9.828
			c1.599-3.093,3.73-5.581,6.391-7.462c2.66-1.881,5.482-2.821,8.466-2.821c0.951,0,1.59,0.185,1.914,0.551
			c0.324,0.367,0.594,1.028,0.811,1.978c0.908-0.17,1.859-0.259,2.854-0.259c2.119,0,3.179,0.757,3.179,2.271
			c0,0.908-0.324,3.073-0.973,6.489c-0.996,4.973-1.492,8.433-1.492,10.379c0,0.649,0.162,1.167,0.487,1.559
			c0.324,0.389,0.746,0.582,1.265,0.582c0.821,0,1.817-0.528,2.984-1.59c1.168-1.059,2.747-2.778,4.736-5.156
			c0.519-0.605,1.104-0.909,1.752-0.909c0.562,0,1.005,0.26,1.33,0.778c0.324,0.52,0.486,1.232,0.486,2.14
			c0,1.733-0.411,3.073-1.232,4.024c-1.774,2.204-3.656,4.065-5.645,5.578c-1.989,1.516-3.915,2.271-5.773,2.271
			c-1.428,0-2.736-0.485-3.924-1.459c-1.19-0.973-2.087-2.305-2.692-3.989c-2.249,3.632-5.083,5.448-8.499,5.448
			C130.293,168.729,128.152,167.757,126.552,165.812z M138.036,160.492c0.864-1.125,1.491-2.617,1.881-4.478l2.4-11.937
			c-1.817,0.044-3.493,0.725-5.028,2.043c-1.537,1.319-2.758,3.061-3.666,5.223c-0.907,2.164-1.362,4.454-1.362,6.876
			c0,1.343,0.27,2.338,0.81,2.985c0.541,0.648,1.287,0.973,2.238,0.973C136.261,162.178,137.17,161.616,138.036,160.492z"/>
		<path fill="#FFFFFF" d="M175.662,158.61c0.518,0,0.94,0.292,1.265,0.875c0.324,0.584,0.486,1.288,0.486,2.108
			c0,1.818-0.649,3.266-1.946,4.347c-2.249,1.86-4.8,2.789-7.655,2.789c-4.11,0-7.114-1.718-9.018-5.156
			c-1.904-3.438-2.854-7.925-2.854-13.463c0-5.275,0.681-11.287,2.044-18.035c1.362-6.747,3.373-12.542,6.032-17.386
			c2.66-4.843,5.828-7.266,9.505-7.266c2.076,0,3.708,0.962,4.898,2.886c1.188,1.925,1.784,4.683,1.784,8.273
			c0,5.148-1.417,11.116-4.25,17.905c-2.833,6.792-6.693,13.495-11.58,20.111c0.302,1.774,0.843,3.049,1.622,3.828
			c0.779,0.778,1.838,1.167,3.179,1.167c0.734,0,1.567-0.215,2.497-0.647c0.929-0.434,1.784-0.995,2.563-1.688
			C174.71,158.827,175.185,158.61,175.662,158.61z M168.72,119.23c-1.255,3.59-2.358,8.044-3.309,13.365
			c-0.952,5.319-1.471,10.423-1.558,15.311c3.071-5.06,5.514-10.13,7.331-15.214c1.817-5.081,2.725-9.72,2.725-13.915
			c0-3.285-0.606-4.93-1.816-4.93C171.098,113.846,169.974,115.642,168.72,119.23z"/>
	</g>
	<path fill="#FFFFFF" d="M70.995,127.661c1.37-4.108,2.738-16.43-2.738-21.906C69.625,115.339,68.257,123.554,70.995,127.661z
		 M107.065,113.458c-1.031,2.061-1.467,4.231-1.667,6.16c-9.249-0.968-19.343-0.144-28.499,2.74
		c-1.161,0.411-1.949,1.686-1.802,2.907c0.149,1.225,1.218,2.271,2.444,2.397l71.202,8.215c1.246,0.159,2.544-0.655,2.944-1.845
		c0.399-1.188-0.145-2.622-1.23-3.247c-5.735-3.44-12.829-7.009-25.974-8.944c0.094-1.704,0.191-3.749-0.3-6.031
		c-0.655-3.059-3.127-6.411-7.445-7.275C112.754,108.07,109.131,109.533,107.065,113.458z M58.67,109.864
		c6.847,9.584-1.369,27.382,20.539,24.644c-14.89-1.241-10.655-24.967-17.886-25.33C60.577,109.141,59.699,109.349,58.67,109.864z
		 M115.624,113.927c2.528,0.505,2.795,1.302,3.167,3.038c0.247,1.152,0.215,2.673,0.17,4.234c-2.753-0.271-5.332-0.489-8.128-0.939
		c0.169-1.503,0.518-3.176,1.111-4.365C112.791,114.646,113.442,113.994,115.624,113.927z M66.888,135.877
		c-5.477-1.37-8.217-10.953-10.955-15.061C55.933,130.4,60.041,135.877,66.888,135.877z"/>
	<g>
		<path fill="#FFFFFF" d="M203.398,141.935v-1.048c-0.02-0.991,0.466-1.477,1.456-1.458h3.467c0.99-0.02,1.477,0.467,1.456,1.458
			v26.274c0,4.428-1.553,8.202-4.66,11.332c-3.126,3.145-6.923,4.717-11.389,4.717c-3.574,0-6.739-1.049-9.496-3.146
			c-0.835-0.641-1.253-1.176-1.253-1.602c0-0.331,0.194-0.67,0.582-1.02l2.418-2.243c0.35-0.33,0.679-0.495,0.99-0.495
			c0.272,0,0.66,0.194,1.165,0.582c1.651,1.224,3.545,1.835,5.68,1.835c2.525,0,4.699-0.873,6.525-2.622
			c1.922-1.845,2.883-3.952,2.883-6.322v-1.368c-2.738,1.901-5.68,2.855-8.826,2.855c-4.291,0-7.951-1.506-10.981-4.516
			c-2.99-2.992-4.486-6.593-4.486-10.807c0-4.233,1.505-7.856,4.516-10.865c3.029-3.011,6.689-4.515,10.982-4.515
			C197.688,138.963,200.679,139.954,203.398,141.935z M194.542,145.518c-2.408,0-4.467,0.854-6.175,2.563
			c-1.709,1.689-2.563,3.777-2.563,6.263c0,2.484,0.854,4.573,2.563,6.263c1.708,1.709,3.796,2.563,6.262,2.563
			c2.466,0,4.554-0.854,6.262-2.563c1.709-1.689,2.563-3.778,2.563-6.263c0-2.467-0.854-4.555-2.563-6.263
			C199.202,146.371,197.086,145.518,194.542,145.518z"/>
		<path fill="#FFFFFF" d="M220.671,141.149c1.728-1.399,4.174-2.127,7.34-2.186h1.516c0.99-0.04,1.477,0.446,1.455,1.457v3.757
			c0.02,0.991-0.466,1.476-1.455,1.456h-1.282c-4.797,0.059-7.244,2.106-7.34,6.146v16.021c0.019,0.99-0.466,1.476-1.456,1.455
			h-3.642c-0.99,0.02-1.476-0.466-1.456-1.455v-26.915c-0.019-0.991,0.466-1.477,1.456-1.458h3.409
			c0.97-0.039,1.456,0.417,1.456,1.37V141.149z"/>
		<path fill="#FFFFFF" d="M312.631,158.742l5.594-18.06c0.213-0.797,0.757-1.215,1.632-1.253h4.31c0.759,0,1.137,0.3,1.137,0.904
			c0,0.154-0.038,0.339-0.115,0.554l-9.555,27.206c-0.272,0.795-0.825,1.184-1.661,1.165h-2.768c-0.835,0.019-1.388-0.37-1.66-1.165
			l-9.524-27.206c-0.079-0.234-0.117-0.429-0.117-0.583c0-0.583,0.379-0.875,1.137-0.875h4.31c0.854-0.02,1.399,0.379,1.633,1.195
			L312.631,158.742z"/>
		<path fill="#FFFFFF" d="M353.551,156.731h-19.925c-0.077,0-0.116,0.029-0.116,0.088c0,0.952,0.534,2.087,1.603,3.408
			c1.729,2.156,4.155,3.233,7.282,3.233c2.33,0,4.572-0.505,6.729-1.515c0.679-0.312,1.126-0.467,1.339-0.467
			c0.447,0,0.825,0.281,1.137,0.846l1.311,2.445c0.195,0.352,0.291,0.621,0.291,0.816c0,0.445-0.312,0.873-0.933,1.282
			c-3.087,1.901-6.476,2.854-10.165,2.854c-4.485,0-8.214-1.478-11.186-4.429c-2.949-2.97-4.427-6.641-4.427-11.01
			c0-4.351,1.478-8.002,4.427-10.953c2.835-2.875,6.351-4.311,10.545-4.311c3.865,0,7.03,1.231,9.496,3.699
			c2.737,2.717,4.107,6.329,4.107,10.835c0,0.601-0.01,1.145-0.029,1.632l-0.028,0.233
			C355.006,156.354,354.521,156.791,353.551,156.731z M333.656,151.606h14.446c0.079,0,0.117-0.138,0.117-0.408
			c0-1.186-0.466-2.352-1.398-3.495c-1.397-1.73-3.262-2.593-5.593-2.593c-2.68,0-4.863,1.125-6.553,3.379
			c-0.777,1.028-1.166,1.989-1.166,2.883C333.51,151.526,333.559,151.606,333.656,151.606z"/>
		<path fill="#FFFFFF" d="M359.812,163.519l2.534-1.632c0.33-0.214,0.621-0.319,0.874-0.319c0.351,0,0.748,0.242,1.193,0.729
			c0.661,0.698,1.447,1.049,2.36,1.049c0.737,0,1.369-0.254,1.894-0.758c0.504-0.506,0.759-1.107,0.759-1.807
			c0-1.106-0.72-2.213-2.156-3.321c-0.583-0.446-1.749-1.165-3.497-2.155c-3.282-1.846-4.923-4.379-4.923-7.603
			c0-2.526,0.837-4.623,2.505-6.292c1.632-1.632,3.642-2.448,6.029-2.448c2.234,0,4.263,0.912,6.088,2.739
			c0.855,0.874,1.282,1.563,1.282,2.068c0,0.427-0.252,0.806-0.758,1.135l-2.388,1.602c-0.35,0.232-0.641,0.351-0.874,0.351
			c-0.368,0-0.72-0.195-1.049-0.583c-0.562-0.62-1.272-0.931-2.126-0.931c-0.737,0-1.33,0.232-1.777,0.699
			c-0.445,0.426-0.669,0.959-0.669,1.601c0,0.835,0.562,1.649,1.688,2.447c0.447,0.328,1.407,0.933,2.884,1.806
			c3.999,2.369,6,5.437,6,9.205c0,2.446-0.815,4.494-2.446,6.146c-1.67,1.65-3.729,2.477-6.176,2.477
			c-2.601,0-4.834-0.961-6.699-2.884c-0.893-0.932-1.34-1.651-1.34-2.157C359.025,164.237,359.288,163.848,359.812,163.519z"/>
		<g>
			<path fill="#FFFFFF" d="M259.648,142.849c-3.103-3.101-7.227-4.81-11.614-4.81c-4.385,0-8.508,1.708-11.611,4.81
				c-3.101,3.101-4.809,7.226-4.809,11.614c0,4.386,1.708,8.51,4.809,11.611c3.103,3.104,7.227,4.811,11.611,4.811
				c4.388,0,8.511-1.706,11.614-4.811C266.052,159.671,266.052,149.252,259.648,142.849z M244.587,150.827
				c0.943-0.942,2.196-1.461,3.528-1.461c1.333,0,2.586,0.519,3.527,1.461c1.944,1.944,1.944,5.11,0,7.057
				c-0.941,0.939-2.194,1.461-3.527,1.461c-1.332,0-2.585-0.521-3.528-1.461C242.645,155.938,242.645,152.773,244.587,150.827z
				 M261.709,150.073l-6.854,2.233c-0.324-1.073-0.909-2.085-1.757-2.935c-0.742-0.741-1.626-1.293-2.585-1.638l2.428-6.781
				c1.953,0.707,3.742,1.838,5.255,3.35C259.866,145.977,261.035,147.961,261.709,150.073z M235.084,160.684l6.702-3.252
				c0.335,0.688,0.779,1.336,1.349,1.904c0.56,0.562,1.2,1.006,1.891,1.344l-3.291,6.696c-1.41-0.691-2.714-1.615-3.855-2.757
				C236.714,163.455,235.776,162.125,235.084,160.684z"/>
			<circle fill="#FFFFFF" cx="248.141" cy="154.348" r="0.789"/>
		</g>
		<g>
			<path fill="#FFFFFF" d="M294.712,142.849c-3.104-3.101-7.228-4.81-11.614-4.81s-8.51,1.708-11.613,4.81
				c-3.101,3.101-4.809,7.226-4.809,11.614c0,4.386,1.708,8.51,4.809,11.611c3.104,3.104,7.227,4.811,11.613,4.811
				s8.511-1.706,11.614-4.811C301.114,159.671,301.114,149.252,294.712,142.849z M279.65,150.827
				c0.943-0.942,2.196-1.461,3.528-1.461c1.333,0,2.586,0.519,3.527,1.461c1.942,1.944,1.942,5.11,0,7.057
				c-0.941,0.939-2.194,1.461-3.527,1.461c-1.332,0-2.585-0.521-3.528-1.461C277.706,155.938,277.706,152.773,279.65,150.827z
				 M296.772,150.073l-6.855,2.233c-0.323-1.073-0.909-2.085-1.757-2.935c-0.741-0.741-1.625-1.293-2.586-1.638l2.43-6.781
				c1.952,0.707,3.742,1.838,5.254,3.35C294.93,145.977,296.097,147.961,296.772,150.073z M270.146,160.684l6.702-3.252
				c0.334,0.688,0.781,1.336,1.348,1.904c0.562,0.562,1.202,1.006,1.892,1.344l-3.291,6.696c-1.408-0.691-2.714-1.615-3.854-2.757
				C271.777,163.455,270.838,162.125,270.146,160.684z"/>
			<circle fill="#FFFFFF" cx="283.203" cy="154.348" r="0.789"/>
		</g>
	</g>
</g>
</svg>
